<svg width="25" height="25" viewBox="0 0 25 25" fill="none" xmlns="http://www.w3.org/2000/svg">
<path d="M3.20887 0H21.7914C23.5561 0 25 1.30655 25 3.20862V21.7916C25 23.6937 23.5561 25.0003 21.7914 25.0003H3.20887C1.44362 25.0003 0 23.6937 0 21.7916V3.20862C0 1.30655 1.44362 0 3.20887 0ZM18.2116 2.77764C17.5925 2.77764 17.0865 3.28383 17.0865 3.90322V6.59717C17.0865 7.21631 17.5925 7.72276 18.2116 7.72276H21.0372C21.6564 7.72276 22.1628 7.21631 22.1628 6.59717V3.90322C22.1628 3.28383 21.6564 2.77764 21.0372 2.77764H18.2116ZM22.1746 10.5725H19.9743C20.1825 11.2522 20.2951 11.9722 20.2951 12.7172C20.2951 16.8755 16.8155 20.2464 12.5239 20.2464C8.23254 20.2464 4.75337 16.8755 4.75337 12.7172C4.75337 11.9717 4.8658 11.252 5.07424 10.5725H2.77815V21.133C2.77815 21.6795 3.2253 22.1269 3.77205 22.1269H21.1812C21.728 22.1269 22.1751 21.6797 22.1751 21.133V10.5725H22.1746ZM12.5236 7.58081C9.75086 7.58081 7.50277 9.75881 7.50277 12.4458C7.50277 15.1329 9.75086 17.3109 12.5236 17.3109C15.2966 17.3109 17.545 15.1329 17.545 12.4458C17.545 9.75881 15.2969 7.58081 12.5236 7.58081Z" fill="#673AB7"/>
</svg>
