<svg width="25" height="25" viewBox="0 0 25 25" fill="none" xmlns="http://www.w3.org/2000/svg">
<g clip-path="url(#clip0)">
<path d="M18.649 1.82292C15.1604 1.82292 12.3146 4.63125 12.2875 8.09375L8.32604 13.7469C7.22083 13.6469 6.26771 13.875 5.425 14.3865L0 12.2021V18.1677L3.20833 19.4521C3.67187 21.576 5.58125 23.1771 7.84062 23.1771C10.2969 23.1771 12.3323 21.299 12.5562 18.9073L18.6552 14.4708C22.1542 14.4708 25 11.6469 25 8.14479L24.999 8.14375C24.999 4.65834 22.1531 1.82292 18.649 1.82292V1.82292ZM7.84062 21.9187C6.5 21.9187 5.34583 21.1677 4.75937 20.0729C5.32812 20.2896 5.90313 20.5281 6.47292 20.751C7.89687 21.3344 9.51458 20.6396 10.0833 19.2219C10.6583 17.8042 9.96042 16.2042 8.53854 15.6365L7.0875 15.0531C7.33854 14.9969 7.58958 14.9698 7.84062 14.9698C9.77708 14.9698 11.3281 16.5146 11.3281 18.4437C11.3281 20.374 9.77708 21.9187 7.84062 21.9187V21.9187ZM18.6552 12.3812C16.3 12.3812 14.3865 10.4906 14.3865 8.14479C14.3865 5.80938 16.2948 3.90834 18.6552 3.90834C20.9937 3.90834 22.9073 5.80938 22.9073 8.14479C22.9073 10.4969 20.9927 12.3875 18.6552 12.3812Z" fill="#673AB7"/>
<path d="M18.6667 4.74583C16.7865 4.74583 15.2635 6.26354 15.2635 8.13646C15.2635 10.0094 16.7812 11.5271 18.6667 11.5271C20.5354 11.5271 22.0698 10.0146 22.0698 8.13646C22.0698 6.25833 20.5354 4.74583 18.6667 4.74583V4.74583Z" fill="#673AB7"/>
</g>
<defs>
<clipPath id="clip0">
<rect width="25" height="25" fill="white"/>
</clipPath>
</defs>
</svg>
