<svg width="33" height="33" viewBox="0 0 33 33" fill="none" xmlns="http://www.w3.org/2000/svg">
<g id="Group" filter="url(#filter0_d)">
<g id="Group_2">
<path id="Vector" d="M13.0085 19.5164L10.549 18.5664C10.8777 19.8872 12.0701 20.8658 13.4939 20.8658C15.1698 20.8658 16.5305 19.5068 16.5305 17.8287C16.5305 16.1544 15.1698 14.7935 13.4939 14.7935C12.89 14.7935 12.3281 14.9713 11.8561 15.2752L14.285 16.2117C15.1966 16.5653 15.6514 17.5898 15.2998 18.5015C14.9462 19.4151 13.9219 19.8719 13.0085 19.5164Z" fill="#673AB7"/>
<path id="Vector_2" d="M22.3782 12.4235C24.4536 12.4235 26.141 10.7358 26.141 8.66011C26.141 6.58442 24.4536 4.89673 22.3782 4.89673C20.3048 4.89673 18.6154 6.58442 18.6154 8.66011C18.6154 10.7339 20.3048 12.4235 22.3782 12.4235ZM22.3782 6.00911C23.8421 6.00911 25.0307 7.19795 25.0307 8.66011C25.0307 10.1223 23.8421 11.3111 22.3782 11.3111C20.9163 11.3111 19.7276 10.1223 19.7276 8.66011C19.7276 7.19795 20.9163 6.00911 22.3782 6.00911Z" fill="#673AB7"/>
<path id="Vector_3" d="M25.7226 0H7.2774C5.46575 0 4 1.46789 4 3.2779V12.2783L8.768 14.1208C9.69103 13.0524 11.044 12.3681 12.5614 12.3433L15.426 8.52064C15.426 5.13188 18.1741 2.38532 21.5604 2.38532C24.9486 2.38532 27.6948 5.13188 27.6948 8.52064C27.6948 10.3804 26.8654 12.047 25.5582 13.1728C24.4823 14.0959 23.0873 14.656 21.5604 14.656C21.3999 14.656 21.2412 14.6483 21.0845 14.6349L17.7555 17.1445C17.7632 17.2496 17.767 17.3566 17.767 17.4637C17.767 20.2924 15.4738 22.5898 12.6455 22.5898C9.81715 22.5898 7.52393 20.2943 7.52393 17.4637C7.52393 17.456 7.52393 17.4446 7.52393 17.435L4 16.0742V21.7221C4 23.5321 5.46767 25 7.2774 25H25.7226C27.5323 25 29 23.5321 29 21.7221V3.27982C29 1.4698 27.5323 0 25.7226 0Z" fill="#673AB7"/>
</g>
</g>
<defs>
<filter id="filter0_d" x="0" y="0" width="33" height="33" filterUnits="userSpaceOnUse" color-interpolation-filters="sRGB">
<feFlood flood-opacity="0" result="BackgroundImageFix"/>
<feColorMatrix in="SourceAlpha" type="matrix" values="0 0 0 0 0 0 0 0 0 0 0 0 0 0 0 0 0 0 127 0"/>
<feOffset dy="4"/>
<feGaussianBlur stdDeviation="2"/>
<feColorMatrix type="matrix" values="0 0 0 0 0 0 0 0 0 0 0 0 0 0 0 0 0 0 0.25 0"/>
<feBlend mode="normal" in2="BackgroundImageFix" result="effect1_dropShadow"/>
<feBlend mode="normal" in="SourceGraphic" in2="effect1_dropShadow" result="shape"/>
</filter>
</defs>
</svg>
