<svg width="25" height="15" viewBox="0 0 25 15" fill="none" xmlns="http://www.w3.org/2000/svg">
<path d="M23.9644 11.4603C23.2201 10.5675 22.3441 9.80553 21.5153 8.99641C20.7676 8.26709 20.7204 7.84401 21.3215 7.00224C21.9775 6.08354 22.683 5.20006 23.3449 4.2855C23.9628 3.43078 24.5945 2.5784 24.9196 1.55502C25.1259 0.903941 24.9435 0.616359 24.2758 0.502362C24.1608 0.482413 24.0419 0.481377 23.9248 0.481377L19.9636 0.476713C19.4758 0.469459 19.2061 0.682166 19.0335 1.11458C18.8006 1.69907 18.5604 2.28304 18.283 2.84707C17.6534 4.1259 16.9502 5.36199 15.9644 6.40868C15.7471 6.63953 15.5066 6.93126 15.1434 6.81104C14.689 6.64523 14.555 5.89648 14.5625 5.64335L14.5586 1.07131C14.4706 0.418161 14.3257 0.126951 13.6772 0L9.56248 0.000777317C9.01322 0.000777317 8.73782 0.212966 8.44454 0.556511C8.27535 0.754968 8.22432 0.883733 8.57201 0.94954C9.25495 1.07908 9.63969 1.52108 9.74177 2.20584C9.90551 3.29994 9.89411 4.39846 9.7998 5.49697C9.77208 5.81772 9.71689 6.13768 9.58968 6.43718C9.39071 6.90794 9.06945 7.0038 8.6474 6.71414C8.26525 6.45195 7.99684 6.08198 7.73413 5.71046C6.74728 4.31607 5.95993 2.81235 5.31792 1.2322C5.13242 0.775696 4.81245 0.498994 4.32874 0.491481C3.14032 0.472568 1.95165 0.469459 0.763234 0.492517C0.0481644 0.505989 -0.165061 0.853161 0.126149 1.50139C1.42053 4.38058 2.86129 7.17972 4.74198 9.72961C5.70758 11.0382 6.8162 12.1935 8.24841 13.0122C9.87157 13.9402 11.6188 14.2195 13.4591 14.1335C14.3208 14.0931 14.5796 13.869 14.6195 13.0101C14.6465 12.4225 14.7131 11.8383 15.003 11.3103C15.2874 10.7921 15.7183 10.6934 16.215 11.0157C16.4634 11.1771 16.6728 11.3826 16.8704 11.5992C17.3554 12.1298 17.8231 12.6764 18.3265 13.1892C18.9579 13.8317 19.7059 14.2112 20.6463 14.1338L24.287 14.1345C24.8735 14.0962 25.1777 13.377 24.8409 12.7223C24.6043 12.2637 24.294 11.8554 23.9644 11.4603Z" fill="#673AB7"/>
</svg>
